<svg width="24" height="24" viewBox="0 0 24 24" fill="none" xmlns="http://www.w3.org/2000/svg">
<path fill-rule="evenodd" clip-rule="evenodd" d="M6.00001 5.94944C6.19871 5.94944 6.39547 5.91027 6.57902 5.83418C6.76258 5.75809 6.92934 5.64656 7.06976 5.50598C7.21019 5.36539 7.32153 5.19851 7.39741 5.01487C7.47329 4.83122 7.51224 4.63443 7.51201 4.43572V1.70658C7.51201 1.50802 7.4729 1.31141 7.39692 1.12796C7.32093 0.944518 7.20956 0.777837 7.06916 0.637435C6.92875 0.497032 6.76207 0.385659 6.57863 0.309674C6.39518 0.233689 6.19857 0.19458 6.00001 0.19458C5.80145 0.19458 5.60484 0.233689 5.42139 0.309674C5.23795 0.385659 5.07127 0.497032 4.93087 0.637435C4.79046 0.777837 4.67909 0.944518 4.60311 1.12796C4.52712 1.31141 4.48801 1.50802 4.48801 1.70658V4.43572C4.48779 4.63443 4.52673 4.83122 4.60261 5.01487C4.6785 5.19851 4.78983 5.36539 4.93026 5.50598C5.07068 5.64656 5.23744 5.75809 5.421 5.83418C5.60455 5.91027 5.80131 5.94944 6.00001 5.94944Z" fill="#5087AE"/>
<path fill-rule="evenodd" clip-rule="evenodd" d="M18 5.94944C18.1987 5.94944 18.3955 5.91027 18.579 5.83418C18.7626 5.75809 18.9293 5.64656 19.0698 5.50598C19.2102 5.36539 19.3215 5.19851 19.3974 5.01487C19.4733 4.83122 19.5122 4.63443 19.512 4.43572V1.70658C19.512 1.30557 19.3527 0.92099 19.0692 0.637435C18.7856 0.35388 18.401 0.19458 18 0.19458C17.599 0.19458 17.2144 0.35388 16.9309 0.637435C16.6473 0.92099 16.488 1.30557 16.488 1.70658V4.43572C16.4878 4.63443 16.5267 4.83122 16.6026 5.01487C16.6785 5.19851 16.7898 5.36539 16.9303 5.50598C17.0707 5.64656 17.2374 5.75809 17.421 5.83418C17.6046 5.91027 17.8013 5.94944 18 5.94944Z" fill="#5087AE"/>
<path fill-rule="evenodd" clip-rule="evenodd" d="M21.7166 2.21741V4.7117C21.7369 5.65864 21.4087 6.58007 20.7943 7.30095C20.1799 8.02182 19.3222 8.49193 18.384 8.62198C17.8664 8.67551 17.3433 8.61974 16.8486 8.45828C16.3539 8.29682 15.8986 8.03328 15.5122 7.6847C15.1258 7.33613 14.8169 6.9103 14.6056 6.43478C14.3942 5.95926 14.285 5.44465 14.2851 4.92427V2.82084C14.2847 2.65746 14.2195 2.50093 14.1038 2.38556C13.9881 2.2702 13.8314 2.20541 13.668 2.20541H10.332C10.1688 2.20541 10.0122 2.27025 9.89683 2.38567C9.78141 2.50108 9.71657 2.65762 9.71657 2.82084V4.70655C9.73817 5.65438 9.41055 6.57706 8.79605 7.29902C8.18156 8.02099 7.32309 8.49184 6.384 8.62198C5.86638 8.67551 5.34328 8.61974 4.84858 8.45828C4.35388 8.29682 3.8986 8.03328 3.51221 7.6847C3.12582 7.33613 2.81694 6.9103 2.60556 6.43478C2.39419 5.95926 2.28502 5.44465 2.28514 4.92427V2.21741C1.67081 2.24684 1.09122 2.511 0.665993 2.95536C0.24077 3.39972 0.0023707 3.99038 0 4.60541V21.4054C0 22.0419 0.252856 22.6524 0.702944 23.1025C1.15303 23.5526 1.76348 23.8054 2.4 23.8054H21.6C22.2365 23.8054 22.847 23.5526 23.2971 23.1025C23.7471 22.6524 24 22.0419 24 21.4054V4.60541C23.9977 3.99066 23.7595 3.40025 23.3346 2.95593C22.9098 2.51161 22.3306 2.24727 21.7166 2.21741ZM19.7143 18.474C19.7129 18.8609 19.5586 19.2316 19.285 19.5053C19.0114 19.7789 18.6407 19.9332 18.2537 19.9346H5.39657C5.00962 19.9332 4.63891 19.7789 4.36529 19.5053C4.09167 19.2316 3.93736 18.8609 3.936 18.474V12.7826C3.936 12.3938 4.09042 12.021 4.3653 11.7461C4.64017 11.4713 5.01298 11.3168 5.40171 11.3168H18.2589C18.6458 11.3182 19.0165 11.4725 19.2901 11.7461C19.5638 12.0197 19.7181 12.3905 19.7194 12.7774L19.7143 18.474Z" fill="#5087AE"/>
</svg>
