<svg width="13" height="14" viewBox="0 0 13 14" fill="none" xmlns="http://www.w3.org/2000/svg">
<path fill-rule="evenodd" clip-rule="evenodd" d="M7.35309 7.65013C7.20413 7.70972 7.04163 7.85055 7.04163 8.0618V8.3543C7.04163 8.65222 6.79788 8.89597 6.49997 8.89597C6.20205 8.89597 5.9583 8.65222 5.9583 8.3543V8.0618C5.9583 7.44159 6.3483 6.88367 6.95226 6.64263C7.42351 6.45305 7.72684 6.00347 7.71872 5.49159C7.71059 4.84972 7.1608 4.29992 6.51622 4.2918C6.19122 4.28367 5.87705 4.41097 5.64413 4.64388C5.41122 4.87409 5.28122 5.18284 5.28122 5.51055C5.28122 5.80847 5.03747 6.05222 4.73955 6.05222C4.44163 6.05222 4.19788 5.80847 4.19788 5.51055C4.19788 4.89034 4.44163 4.30805 4.88309 3.87201C5.31643 3.44409 5.89059 3.20847 6.49997 3.20847H6.53247C7.76747 3.22472 8.7858 4.24305 8.80205 5.47805C8.81559 6.42597 8.2333 7.29805 7.35309 7.65013ZM6.50003 10.7918C6.20212 10.7918 5.95837 10.548 5.95837 10.2501C5.95837 9.95222 6.20212 9.70847 6.50003 9.70847C6.79795 9.70847 7.0417 9.95222 7.0417 10.2501C7.0417 10.548 6.79795 10.7918 6.50003 10.7918ZM6.5 0.5C2.91146 0.5 0 3.41146 0 7C0 10.5885 2.91146 13.5 6.5 13.5C10.0885 13.5 13 10.5885 13 7C13 3.41146 10.0885 0.5 6.5 0.5V0.5Z" fill="#FCFEFF"/>
</svg>
