<svg width="16" height="10" viewBox="0 0 16 10" fill="none" xmlns="http://www.w3.org/2000/svg">
<path fill-rule="evenodd" clip-rule="evenodd" d="M6.41713 9.04456L0.474273 3.33027C0.235625 3.06658 0.0786191 2.7393 0.0223 2.38814C-0.0340191 2.03698 0.0127687 1.67702 0.156987 1.35192C0.301206 1.02683 0.536659 0.750562 0.834787 0.556639C1.13292 0.362716 1.48091 0.259467 1.83656 0.259415L14.1588 0.259415C14.5134 0.260459 14.8601 0.364046 15.1571 0.557688C15.4541 0.751329 15.6888 1.02675 15.8328 1.35075C15.9768 1.67475 16.024 2.03349 15.9687 2.38371C15.9134 2.73393 15.7579 3.06068 15.5211 3.32456L9.57827 9.03884C9.37838 9.25929 9.13465 9.43556 8.86269 9.55636C8.59073 9.67717 8.29654 9.73985 7.99896 9.74038C7.70138 9.74092 7.40697 9.67931 7.13458 9.55949C6.86219 9.43967 6.61782 9.26428 6.41713 9.04456V9.04456Z" fill="#65B5E2"/>
</svg>
