<svg width="25" height="24" viewBox="0 0 25 24" fill="none" xmlns="http://www.w3.org/2000/svg">
<path fill-rule="evenodd" clip-rule="evenodd" d="M12.5 0C10.1266 0 7.80655 0.703788 5.83316 2.02236C3.85977 3.34094 2.3217 5.21509 1.41345 7.4078C0.5052 9.60051 0.267559 12.0133 0.730582 14.3411C1.1936 16.6689 2.33649 18.8071 4.01472 20.4853C5.69295 22.1635 7.83115 23.3064 10.1589 23.7694C12.4867 24.2324 14.8995 23.9948 17.0922 23.0866C19.2849 22.1783 21.1591 20.6402 22.4776 18.6668C23.7962 16.6935 24.5 14.3734 24.5 12C24.5 8.8174 23.2357 5.76516 20.9853 3.51472C18.7348 1.26428 15.6826 0 12.5 0V0ZM17.9 14.4H12.5103C12.1159 14.3892 11.7406 14.2277 11.4616 13.9487C11.1826 13.6697 11.0211 13.2944 11.0103 12.9V6.01543C11.0103 5.6176 11.1683 5.23607 11.4496 4.95477C11.7309 4.67346 12.1125 4.51543 12.5103 4.51543C12.9081 4.51543 13.2896 4.67346 13.571 4.95477C13.8523 5.23607 14.0103 5.6176 14.0103 6.01543V11.3931H17.9C18.2978 11.3931 18.6794 11.5512 18.9607 11.8325C19.242 12.1138 19.4 12.4953 19.4 12.8931C19.4 13.291 19.242 13.6725 18.9607 13.9538C18.6794 14.2351 18.2978 14.3931 17.9 14.3931V14.4Z" fill="#65B5E2"/>
</svg>
